<?xml version="1.0" encoding="utf-8"?>
<!-- Generator: Adobe Illustrator 17.1.0, SVG Export Plug-In . SVG Version: 6.00 Build 0)  -->
<!DOCTYPE svg PUBLIC "-//W3C//DTD SVG 1.1//EN" "http://www.w3.org/Graphics/SVG/1.1/DTD/svg11.dtd">
<svg version="1.1" id="Layer_1" xmlns="http://www.w3.org/2000/svg" xmlns:xlink="http://www.w3.org/1999/xlink" x="0px" y="0px"
	 viewBox="0 0 500 500" enable-background="new 0 0 500 500" xml:space="preserve">
<circle fill="#E24444" cx="250" cy="250" r="250"/>
<path fill="#FFFFFF" d="M393.7,337.6c13.6,13.6,13.6,35.8,0,49.4l-6.7,6.7c-13.6,13.7-35.8,13.7-49.4,0L250,306.1l-87.6,87.6
	c-13.6,13.7-35.8,13.7-49.4,0l-6.7-6.7c-13.6-13.6-13.6-35.8,0-49.4l87.6-87.6l-87.6-87.6c-13.6-13.7-13.6-35.8,0-49.4l6.7-6.7
	c13.6-13.6,35.8-13.6,49.4,0l87.6,87.6l87.6-87.6c13.6-13.6,35.8-13.6,49.4,0l6.7,6.7c13.6,13.6,13.6,35.8,0,49.4L306.1,250
	L393.7,337.6z"/>
</svg>
