<?xml version="1.0" encoding="utf-8"?>
<!-- Generator: Adobe Illustrator 17.1.0, SVG Export Plug-In . SVG Version: 6.00 Build 0)  -->
<!DOCTYPE svg PUBLIC "-//W3C//DTD SVG 1.1//EN" "http://www.w3.org/Graphics/SVG/1.1/DTD/svg11.dtd">
<svg version="1.1" id="Layer_1" xmlns="http://www.w3.org/2000/svg" xmlns:xlink="http://www.w3.org/1999/xlink" x="0px" y="0px"
	 viewBox="0 0 500 500" enable-background="new 0 0 500 500" xml:space="preserve">
<path fill="#23A6DF" d="M500,250c0,138.1-111.9,250-250,250S0,388.1,0,250S111.9,0,250,0c100.7,0,187.4,59.5,227,145.2
	C491.8,177.1,500,212.6,500,250z"/>
<path fill="#FFFFFF" d="M471.3,132.6L300.1,303.1L249.3,354c-4.6,4.6-12.1,4.6-16.8,0l-107-107c-3.9-3.9-3.9-10.2,0-14l37.4-37.4
	c3.8-3.8,9.9-3.8,13.7,0l58.2,58.2c1.9,1.9,4.9,1.9,6.7,0L423.7,70.2c0,0,2.9,0.9,15.6,15.2C459.5,108.5,471.3,132.6,471.3,132.6z"
	/>
</svg>
