<?xml version="1.0" encoding="utf-8"?>
<!-- Generator: Adobe Illustrator 17.1.0, SVG Export Plug-In . SVG Version: 6.00 Build 0)  -->
<!DOCTYPE svg PUBLIC "-//W3C//DTD SVG 1.1//EN" "http://www.w3.org/Graphics/SVG/1.1/DTD/svg11.dtd">
<svg version="1.1" id="Layer_1" xmlns="http://www.w3.org/2000/svg" xmlns:xlink="http://www.w3.org/1999/xlink" x="0px" y="0px"
	 viewBox="0 0 500 500" enable-background="new 0 0 500 500" xml:space="preserve">
<path fill="#1E3C5F" d="M464.8,96.8v0.5c0,13.8-12.9,25-28.7,25H148.6C139,140.6,119.8,153,97.8,153c-31.7,0-57.5-25.7-57.5-57.5
	S66,38.1,97.8,38.1c23.3,0,43.3,13.8,52.3,33.7h286C451.9,71.7,464.8,82.9,464.8,96.8z"/>
<path fill="#1E3C5F" d="M465.2,246c0,31.7-25.7,57.5-57.5,57.5c-23.2,0-43.3-13.8-52.3-33.6h-286c-15.9,0-28.7-11.2-28.7-25v-0.5
	c0-13.8,12.8-25,28.7-25h287.4c9.6-18.3,28.8-30.7,50.9-30.7C439.5,188.5,465.2,214.3,465.2,246z"/>
<path fill="#1E3C5F" d="M462.2,400.3v0.5c0,13.8-12.8,25-28.7,25H146.1c-9.6,18.3-28.8,30.7-50.9,30.7c-31.7,0-57.5-25.7-57.5-57.5
	s25.7-57.5,57.5-57.5c23.3,0,43.3,13.8,52.3,33.7h286C449.4,375.3,462.2,386.5,462.2,400.3z"/>
</svg>
